%TF.GenerationSoftware,KiCad,Pcbnew,9.0.2*%
%TF.CreationDate,2026-06-11T16:06:00+05:30*%
%TF.ProjectId,noob,6e6f6f62-2e6b-4696-9361-645f70636258,rev?*%
%TF.SameCoordinates,Original*%
%TF.FileFunction,Copper,L2,Bot*%
%TF.FilePolarity,Positive*%
%FSLAX46Y46*%
G04 Gerber Fmt 4.6, Leading zero omitted, Abs format (unit mm)*
G04 Created by KiCad (PCBNEW 9.0.2) date 2026-06-11 16:06:00*
%MOMM*%
%LPD*%
G01*
G04 APERTURE LIST*
G04 Aperture macros list*
%AMRoundRect*
0 Rectangle with rounded corners*
0 $1 Rounding radius*
0 $2 $3 $4 $5 $6 $7 $8 $9 X,Y pos of 4 corners*
0 Add a 4 corners polygon primitive as box body*
4,1,4,$2,$3,$4,$5,$6,$7,$8,$9,$2,$3,0*
0 Add four circle primitives for the rounded corners*
1,1,$1+$1,$2,$3*
1,1,$1+$1,$4,$5*
1,1,$1+$1,$6,$7*
1,1,$1+$1,$8,$9*
0 Add four rect primitives between the rounded corners*
20,1,$1+$1,$2,$3,$4,$5,0*
20,1,$1+$1,$4,$5,$6,$7,0*
20,1,$1+$1,$6,$7,$8,$9,0*
20,1,$1+$1,$8,$9,$2,$3,0*%
G04 Aperture macros list end*
%TA.AperFunction,ComponentPad*%
%ADD10RoundRect,0.250001X-0.949999X-0.949999X0.949999X-0.949999X0.949999X0.949999X-0.949999X0.949999X0*%
%TD*%
%TA.AperFunction,ComponentPad*%
%ADD11C,2.400000*%
%TD*%
%TA.AperFunction,ComponentPad*%
%ADD12C,1.600000*%
%TD*%
%TA.AperFunction,ComponentPad*%
%ADD13C,1.700000*%
%TD*%
%TA.AperFunction,ComponentPad*%
%ADD14R,1.700000X1.700000*%
%TD*%
%TA.AperFunction,ComponentPad*%
%ADD15RoundRect,0.250000X-0.550000X-0.550000X0.550000X-0.550000X0.550000X0.550000X-0.550000X0.550000X0*%
%TD*%
%TA.AperFunction,Conductor*%
%ADD16C,0.200000*%
%TD*%
G04 APERTURE END LIST*
D10*
%TO.P,C1,1*%
%TO.N,/tr*%
X117000000Y-90720000D03*
D11*
%TO.P,C1,2*%
%TO.N,GND*%
X124500000Y-90720000D03*
%TD*%
D12*
%TO.P,R1,1*%
%TO.N,/discharge*%
X114150000Y-107000000D03*
%TO.P,R1,2*%
%TO.N,Net-(R1-Pad2)*%
X126850000Y-107000000D03*
%TD*%
%TO.P,1k1,1*%
%TO.N,/discharge*%
X114150000Y-101000000D03*
%TO.P,1k1,2*%
%TO.N,VCC*%
X126850000Y-101000000D03*
%TD*%
D13*
%TO.P,TP3,2,2*%
%TO.N,GND*%
X125500000Y-115540000D03*
D14*
%TO.P,TP3,1,1*%
%TO.N,Net-(C2-Pad2)*%
X125500000Y-113000000D03*
%TD*%
D13*
%TO.P,TP1,2,2*%
%TO.N,VCC*%
X116300000Y-115540000D03*
D14*
%TO.P,TP1,1,1*%
%TO.N,GND*%
X116300000Y-113000000D03*
%TD*%
D12*
%TO.P,U1,8,VCC*%
%TO.N,VCC*%
X137815000Y-105190000D03*
%TO.P,U1,7,DIS*%
%TO.N,/discharge*%
X137815000Y-107730000D03*
%TO.P,U1,6,THR*%
%TO.N,/tr*%
X137815000Y-110270000D03*
%TO.P,U1,5,CV*%
%TO.N,unconnected-(U1-CV-Pad5)*%
X137815000Y-112810000D03*
%TO.P,U1,4,R*%
%TO.N,VCC*%
X130195000Y-112810000D03*
%TO.P,U1,3,Q*%
%TO.N,/out*%
X130195000Y-110270000D03*
%TO.P,U1,2,TR*%
%TO.N,/tr*%
X130195000Y-107730000D03*
D15*
%TO.P,U1,1,GND*%
%TO.N,GND*%
X130195000Y-105190000D03*
%TD*%
D11*
%TO.P,C2,2*%
%TO.N,Net-(C2-Pad2)*%
X139000000Y-91500000D03*
D10*
%TO.P,C2,1*%
%TO.N,/out*%
X134000000Y-91500000D03*
%TD*%
D16*
%TO.N,/tr*%
X117000000Y-90720000D02*
X117000000Y-96000000D01*
%TO.N,Net-(C2-Pad2)*%
X126711000Y-114211000D02*
X125500000Y-113000000D01*
X130775314Y-114211000D02*
X126711000Y-114211000D01*
X131596000Y-98904000D02*
X131596000Y-113390314D01*
X131596000Y-113390314D02*
X130775314Y-114211000D01*
X139000000Y-91500000D02*
X131596000Y-98904000D01*
%TD*%
%TA.AperFunction,Conductor*%
%TO.N,GND*%
G36*
X147943039Y-81019685D02*
G01*
X147988794Y-81072489D01*
X148000000Y-81124000D01*
X148000000Y-123948638D01*
X147980315Y-124015677D01*
X147963681Y-124036319D01*
X146536319Y-125463681D01*
X146474996Y-125497166D01*
X146448638Y-125500000D01*
X105051362Y-125500000D01*
X104984323Y-125480315D01*
X104963681Y-125463681D01*
X104536319Y-125036319D01*
X104502834Y-124974996D01*
X104500000Y-124948638D01*
X104500000Y-115433713D01*
X114949500Y-115433713D01*
X114949500Y-115646286D01*
X114982753Y-115856239D01*
X115048444Y-116058414D01*
X115144951Y-116247820D01*
X115269890Y-116419786D01*
X115420213Y-116570109D01*
X115592179Y-116695048D01*
X115592181Y-116695049D01*
X115592184Y-116695051D01*
X115781588Y-116791557D01*
X115983757Y-116857246D01*
X116193713Y-116890500D01*
X116193714Y-116890500D01*
X116406286Y-116890500D01*
X116406287Y-116890500D01*
X116616243Y-116857246D01*
X116818412Y-116791557D01*
X117007816Y-116695051D01*
X117062572Y-116655269D01*
X117179786Y-116570109D01*
X117179788Y-116570106D01*
X117179792Y-116570104D01*
X117330104Y-116419792D01*
X117330106Y-116419788D01*
X117330109Y-116419786D01*
X117455048Y-116247820D01*
X117455047Y-116247820D01*
X117455051Y-116247816D01*
X117551557Y-116058412D01*
X117617246Y-115856243D01*
X117650500Y-115646287D01*
X117650500Y-115433713D01*
X117617246Y-115223757D01*
X117551557Y-115021588D01*
X117455051Y-114832184D01*
X117455049Y-114832181D01*
X117455048Y-114832179D01*
X117330109Y-114660213D01*
X117216181Y-114546285D01*
X117182696Y-114484962D01*
X117187680Y-114415270D01*
X117229552Y-114359337D01*
X117260529Y-114342422D01*
X117392086Y-114293354D01*
X117392093Y-114293350D01*
X117507187Y-114207190D01*
X117507190Y-114207187D01*
X117593350Y-114092093D01*
X117593354Y-114092086D01*
X117643596Y-113957379D01*
X117643598Y-113957372D01*
X117649999Y-113897844D01*
X117650000Y-113897827D01*
X117650000Y-113250000D01*
X116733012Y-113250000D01*
X116765925Y-113192993D01*
X116800000Y-113065826D01*
X116800000Y-112934174D01*
X116765925Y-112807007D01*
X116733012Y-112750000D01*
X117650000Y-112750000D01*
X117650000Y-112102164D01*
X117649997Y-112102135D01*
X124149500Y-112102135D01*
X124149500Y-113897870D01*
X124149501Y-113897876D01*
X124155908Y-113957483D01*
X124206202Y-114092328D01*
X124206206Y-114092335D01*
X124292452Y-114207544D01*
X124292455Y-114207547D01*
X124407664Y-114293793D01*
X124407671Y-114293797D01*
X124452618Y-114310561D01*
X124542517Y-114344091D01*
X124602127Y-114350500D01*
X124612685Y-114350499D01*
X124679723Y-114370179D01*
X124700372Y-114386818D01*
X125370591Y-115057037D01*
X125307007Y-115074075D01*
X125192993Y-115139901D01*
X125099901Y-115232993D01*
X125034075Y-115347007D01*
X125017037Y-115410591D01*
X124384728Y-114778282D01*
X124384727Y-114778282D01*
X124345380Y-114832439D01*
X124248904Y-115021782D01*
X124183242Y-115223869D01*
X124183242Y-115223872D01*
X124150000Y-115433753D01*
X124150000Y-115646246D01*
X124183242Y-115856127D01*
X124183242Y-115856130D01*
X124248904Y-116058217D01*
X124345375Y-116247550D01*
X124384728Y-116301716D01*
X125017037Y-115669408D01*
X125034075Y-115732993D01*
X125099901Y-115847007D01*
X125192993Y-115940099D01*
X125307007Y-116005925D01*
X125370590Y-116022962D01*
X124738282Y-116655269D01*
X124738282Y-116655270D01*
X124792449Y-116694624D01*
X124981782Y-116791095D01*
X125183870Y-116856757D01*
X125393754Y-116890000D01*
X125606246Y-116890000D01*
X125816127Y-116856757D01*
X125816130Y-116856757D01*
X126018217Y-116791095D01*
X126207554Y-116694622D01*
X126261716Y-116655270D01*
X126261717Y-116655270D01*
X125629408Y-116022962D01*
X125692993Y-116005925D01*
X125807007Y-115940099D01*
X125900099Y-115847007D01*
X125965925Y-115732993D01*
X125982962Y-115669408D01*
X126615270Y-116301717D01*
X126615270Y-116301716D01*
X126654622Y-116247554D01*
X126751095Y-116058217D01*
X126816757Y-115856130D01*
X126816757Y-115856127D01*
X126850000Y-115646246D01*
X126850000Y-115433753D01*
X126816757Y-115223872D01*
X126816757Y-115223869D01*
X126751095Y-115021782D01*
X126735816Y-114991795D01*
X126722920Y-114923126D01*
X126749196Y-114858385D01*
X126806303Y-114818128D01*
X126846301Y-114811500D01*
X130688645Y-114811500D01*
X130688661Y-114811501D01*
X130696257Y-114811501D01*
X130854368Y-114811501D01*
X130854371Y-114811501D01*
X131007099Y-114770577D01*
X131057218Y-114741639D01*
X131144030Y-114691520D01*
X131255834Y-114579716D01*
X131255834Y-114579714D01*
X131266042Y-114569507D01*
X131266044Y-114569504D01*
X131954506Y-113881042D01*
X131954511Y-113881038D01*
X131964714Y-113870834D01*
X131964716Y-113870834D01*
X132076520Y-113759030D01*
X132135300Y-113657219D01*
X132155577Y-113622099D01*
X132196500Y-113469372D01*
X132196500Y-113311257D01*
X132196500Y-105087648D01*
X136514500Y-105087648D01*
X136514500Y-105292351D01*
X136546522Y-105494534D01*
X136609781Y-105689223D01*
X136702715Y-105871613D01*
X136823028Y-106037213D01*
X136967786Y-106181971D01*
X137122749Y-106294556D01*
X137133390Y-106302287D01*
X137224840Y-106348883D01*
X137226080Y-106349515D01*
X137276876Y-106397490D01*
X137293671Y-106465311D01*
X137271134Y-106531446D01*
X137226080Y-106570485D01*
X137133386Y-106617715D01*
X136967786Y-106738028D01*
X136823028Y-106882786D01*
X136702715Y-107048386D01*
X136609781Y-107230776D01*
X136546522Y-107425465D01*
X136514500Y-107627648D01*
X136514500Y-107832351D01*
X136546522Y-108034534D01*
X136609781Y-108229223D01*
X136702715Y-108411613D01*
X136823028Y-108577213D01*
X136967786Y-108721971D01*
X137122749Y-108834556D01*
X137133390Y-108842287D01*
X137224840Y-108888883D01*
X137226080Y-108889515D01*
X137276876Y-108937490D01*
X137293671Y-109005311D01*
X137271134Y-109071446D01*
X137226080Y-109110485D01*
X137133386Y-109157715D01*
X136967786Y-109278028D01*
X136823028Y-109422786D01*
X136702715Y-109588386D01*
X136609781Y-109770776D01*
X136546522Y-109965465D01*
X136514500Y-110167648D01*
X136514500Y-110372351D01*
X136546522Y-110574534D01*
X136609781Y-110769223D01*
X136702715Y-110951613D01*
X136823028Y-111117213D01*
X136967786Y-111261971D01*
X137122749Y-111374556D01*
X137133390Y-111382287D01*
X137224840Y-111428883D01*
X137226080Y-111429515D01*
X137276876Y-111477490D01*
X137293671Y-111545311D01*
X137271134Y-111611446D01*
X137226080Y-111650485D01*
X137133386Y-111697715D01*
X136967786Y-111818028D01*
X136823028Y-111962786D01*
X136702715Y-112128386D01*
X136609781Y-112310776D01*
X136546522Y-112505465D01*
X136514500Y-112707648D01*
X136514500Y-112912351D01*
X136546522Y-113114534D01*
X136609781Y-113309223D01*
X136702715Y-113491613D01*
X136823028Y-113657213D01*
X136967786Y-113801971D01*
X137099785Y-113897872D01*
X137133390Y-113922287D01*
X137249607Y-113981503D01*
X137315776Y-114015218D01*
X137315778Y-114015218D01*
X137315781Y-114015220D01*
X137420137Y-114049127D01*
X137510465Y-114078477D01*
X137611557Y-114094488D01*
X137712648Y-114110500D01*
X137712649Y-114110500D01*
X137917351Y-114110500D01*
X137917352Y-114110500D01*
X138119534Y-114078477D01*
X138314219Y-114015220D01*
X138496610Y-113922287D01*
X138589590Y-113854732D01*
X138662213Y-113801971D01*
X138662215Y-113801968D01*
X138662219Y-113801966D01*
X138806966Y-113657219D01*
X138806968Y-113657215D01*
X138806971Y-113657213D01*
X138893887Y-113537581D01*
X138927287Y-113491610D01*
X139020220Y-113309219D01*
X139083477Y-113114534D01*
X139115500Y-112912352D01*
X139115500Y-112707648D01*
X139083477Y-112505466D01*
X139020220Y-112310781D01*
X139020218Y-112310778D01*
X139020218Y-112310776D01*
X138986503Y-112244607D01*
X138927287Y-112128390D01*
X138908212Y-112102135D01*
X138806971Y-111962786D01*
X138662213Y-111818028D01*
X138496614Y-111697715D01*
X138490006Y-111694348D01*
X138403917Y-111650483D01*
X138353123Y-111602511D01*
X138336328Y-111534690D01*
X138358865Y-111468555D01*
X138403917Y-111429516D01*
X138496610Y-111382287D01*
X138517770Y-111366913D01*
X138662213Y-111261971D01*
X138662215Y-111261968D01*
X138662219Y-111261966D01*
X138806966Y-111117219D01*
X138806968Y-111117215D01*
X138806971Y-111117213D01*
X138859732Y-111044590D01*
X138927287Y-110951610D01*
X139020220Y-110769219D01*
X139083477Y-110574534D01*
X139115500Y-110372352D01*
X139115500Y-110167648D01*
X139083477Y-109965466D01*
X139020220Y-109770781D01*
X139020218Y-109770778D01*
X139020218Y-109770776D01*
X138986503Y-109704607D01*
X138927287Y-109588390D01*
X138919556Y-109577749D01*
X138806971Y-109422786D01*
X138662213Y-109278028D01*
X138496614Y-109157715D01*
X138490006Y-109154348D01*
X138403917Y-109110483D01*
X138353123Y-109062511D01*
X138336328Y-108994690D01*
X138358865Y-108928555D01*
X138403917Y-108889516D01*
X138496610Y-108842287D01*
X138517770Y-108826913D01*
X138662213Y-108721971D01*
X138662215Y-108721968D01*
X138662219Y-108721966D01*
X138806966Y-108577219D01*
X138806968Y-108577215D01*
X138806971Y-108577213D01*
X138859732Y-108504590D01*
X138927287Y-108411610D01*
X139020220Y-108229219D01*
X139083477Y-108034534D01*
X139115500Y-107832352D01*
X139115500Y-107627648D01*
X139083477Y-107425466D01*
X139020220Y-107230781D01*
X139020218Y-107230778D01*
X139020218Y-107230776D01*
X138954782Y-107102352D01*
X138927287Y-107048390D01*
X138919556Y-107037749D01*
X138806971Y-106882786D01*
X138662213Y-106738028D01*
X138496614Y-106617715D01*
X138490006Y-106614348D01*
X138403917Y-106570483D01*
X138353123Y-106522511D01*
X138336328Y-106454690D01*
X138358865Y-106388555D01*
X138403917Y-106349516D01*
X138496610Y-106302287D01*
X138517770Y-106286913D01*
X138662213Y-106181971D01*
X138662215Y-106181968D01*
X138662219Y-106181966D01*
X138806966Y-106037219D01*
X138806968Y-106037215D01*
X138806971Y-106037213D01*
X138859732Y-105964590D01*
X138927287Y-105871610D01*
X139020220Y-105689219D01*
X139083477Y-105494534D01*
X139115500Y-105292352D01*
X139115500Y-105087648D01*
X139107257Y-105035606D01*
X139083477Y-104885465D01*
X139020218Y-104690776D01*
X138968876Y-104590013D01*
X138927287Y-104508390D01*
X138911966Y-104487302D01*
X138806971Y-104342786D01*
X138662213Y-104198028D01*
X138496613Y-104077715D01*
X138496612Y-104077714D01*
X138496610Y-104077713D01*
X138437675Y-104047684D01*
X138314223Y-103984781D01*
X138119534Y-103921522D01*
X137944995Y-103893878D01*
X137917352Y-103889500D01*
X137712648Y-103889500D01*
X137688329Y-103893351D01*
X137510465Y-103921522D01*
X137315776Y-103984781D01*
X137133386Y-104077715D01*
X136967786Y-104198028D01*
X136823028Y-104342786D01*
X136702715Y-104508386D01*
X136609781Y-104690776D01*
X136546522Y-104885465D01*
X136514500Y-105087648D01*
X132196500Y-105087648D01*
X132196500Y-99204096D01*
X132216185Y-99137057D01*
X132232814Y-99116420D01*
X138240406Y-93108827D01*
X138301729Y-93075343D01*
X138371421Y-93080327D01*
X138375532Y-93081944D01*
X138452219Y-93113710D01*
X138667537Y-93171404D01*
X138888543Y-93200500D01*
X138888550Y-93200500D01*
X139111450Y-93200500D01*
X139111457Y-93200500D01*
X139332463Y-93171404D01*
X139547781Y-93113710D01*
X139753726Y-93028405D01*
X139946774Y-92916948D01*
X140123624Y-92781247D01*
X140281247Y-92623624D01*
X140416948Y-92446774D01*
X140528405Y-92253726D01*
X140613710Y-92047781D01*
X140671404Y-91832463D01*
X140700500Y-91611457D01*
X140700500Y-91388543D01*
X140671404Y-91167537D01*
X140613710Y-90952219D01*
X140528405Y-90746274D01*
X140416948Y-90553226D01*
X140281247Y-90376376D01*
X140281242Y-90376370D01*
X140123629Y-90218757D01*
X140123622Y-90218751D01*
X139946782Y-90083058D01*
X139946780Y-90083057D01*
X139946774Y-90083052D01*
X139753726Y-89971595D01*
X139753722Y-89971593D01*
X139547790Y-89886293D01*
X139547783Y-89886291D01*
X139547781Y-89886290D01*
X139332463Y-89828596D01*
X139332457Y-89828595D01*
X139332452Y-89828594D01*
X139111466Y-89799501D01*
X139111463Y-89799500D01*
X139111457Y-89799500D01*
X138888543Y-89799500D01*
X138888537Y-89799500D01*
X138888533Y-89799501D01*
X138667547Y-89828594D01*
X138667540Y-89828595D01*
X138667537Y-89828596D01*
X138530981Y-89865186D01*
X138452219Y-89886290D01*
X138452209Y-89886293D01*
X138246277Y-89971593D01*
X138246273Y-89971595D01*
X138053226Y-90083052D01*
X138053217Y-90083058D01*
X137876377Y-90218751D01*
X137876370Y-90218757D01*
X137718757Y-90376370D01*
X137718751Y-90376377D01*
X137583058Y-90553217D01*
X137583052Y-90553226D01*
X137471595Y-90746273D01*
X137471593Y-90746277D01*
X137386293Y-90952209D01*
X137386290Y-90952219D01*
X137349799Y-91088408D01*
X137328597Y-91167534D01*
X137328594Y-91167547D01*
X137299501Y-91388533D01*
X137299500Y-91388549D01*
X137299500Y-91611450D01*
X137299501Y-91611466D01*
X137328594Y-91832452D01*
X137328595Y-91832457D01*
X137328596Y-91832463D01*
X137328597Y-91832465D01*
X137386290Y-92047781D01*
X137418051Y-92124459D01*
X137425520Y-92193928D01*
X137394245Y-92256407D01*
X137391171Y-92259592D01*
X131227286Y-98423478D01*
X131115481Y-98535282D01*
X131115479Y-98535285D01*
X131065361Y-98622094D01*
X131065359Y-98622096D01*
X131036425Y-98672209D01*
X131036424Y-98672210D01*
X131036423Y-98672215D01*
X130995499Y-98824943D01*
X130995499Y-98824945D01*
X130995499Y-98993046D01*
X130995500Y-98993059D01*
X130995500Y-103773172D01*
X130975815Y-103840211D01*
X130923011Y-103885966D01*
X130858897Y-103896530D01*
X130794986Y-103890000D01*
X130445000Y-103890000D01*
X130445000Y-104874314D01*
X130440606Y-104869920D01*
X130349394Y-104817259D01*
X130247661Y-104790000D01*
X130142339Y-104790000D01*
X130040606Y-104817259D01*
X129949394Y-104869920D01*
X129945000Y-104874314D01*
X129945000Y-103890000D01*
X129595028Y-103890000D01*
X129595012Y-103890001D01*
X129492302Y-103900494D01*
X129325880Y-103955641D01*
X129325875Y-103955643D01*
X129176654Y-104047684D01*
X129052684Y-104171654D01*
X128960643Y-104320875D01*
X128960641Y-104320880D01*
X128905494Y-104487302D01*
X128905493Y-104487309D01*
X128895000Y-104590013D01*
X128895000Y-104940000D01*
X129879314Y-104940000D01*
X129874920Y-104944394D01*
X129822259Y-105035606D01*
X129795000Y-105137339D01*
X129795000Y-105242661D01*
X129822259Y-105344394D01*
X129874920Y-105435606D01*
X129879314Y-105440000D01*
X128895001Y-105440000D01*
X128895001Y-105789986D01*
X128905494Y-105892697D01*
X128960641Y-106059119D01*
X128960643Y-106059124D01*
X129052684Y-106208345D01*
X129176654Y-106332315D01*
X129325875Y-106424356D01*
X129325882Y-106424359D01*
X129408067Y-106451592D01*
X129465512Y-106491364D01*
X129492336Y-106555880D01*
X129480021Y-106624656D01*
X129441949Y-106669616D01*
X129347787Y-106738028D01*
X129347782Y-106738032D01*
X129203028Y-106882786D01*
X129082715Y-107048386D01*
X128989781Y-107230776D01*
X128926522Y-107425465D01*
X128894500Y-107627648D01*
X128894500Y-107832351D01*
X128926522Y-108034534D01*
X128989781Y-108229223D01*
X129082715Y-108411613D01*
X129203028Y-108577213D01*
X129347786Y-108721971D01*
X129502749Y-108834556D01*
X129513390Y-108842287D01*
X129604840Y-108888883D01*
X129606080Y-108889515D01*
X129656876Y-108937490D01*
X129673671Y-109005311D01*
X129651134Y-109071446D01*
X129606080Y-109110485D01*
X129513386Y-109157715D01*
X129347786Y-109278028D01*
X129203028Y-109422786D01*
X129082715Y-109588386D01*
X128989781Y-109770776D01*
X128926522Y-109965465D01*
X128894500Y-110167648D01*
X128894500Y-110372351D01*
X128926522Y-110574534D01*
X128989781Y-110769223D01*
X129082715Y-110951613D01*
X129203028Y-111117213D01*
X129347786Y-111261971D01*
X129502749Y-111374556D01*
X129513390Y-111382287D01*
X129604840Y-111428883D01*
X129606080Y-111429515D01*
X129656876Y-111477490D01*
X129673671Y-111545311D01*
X129651134Y-111611446D01*
X129606080Y-111650485D01*
X129513386Y-111697715D01*
X129347786Y-111818028D01*
X129203028Y-111962786D01*
X129082715Y-112128386D01*
X128989781Y-112310776D01*
X128926522Y-112505465D01*
X128894500Y-112707648D01*
X128894500Y-112912351D01*
X128926522Y-113114534D01*
X128989781Y-113309223D01*
X129051426Y-113430205D01*
X129064322Y-113498874D01*
X129038046Y-113563614D01*
X128980940Y-113603872D01*
X128940941Y-113610500D01*
X127011099Y-113610500D01*
X126981658Y-113601855D01*
X126951672Y-113595332D01*
X126946656Y-113591577D01*
X126944060Y-113590815D01*
X126923418Y-113574181D01*
X126886818Y-113537581D01*
X126853333Y-113476258D01*
X126850499Y-113449900D01*
X126850499Y-112102129D01*
X126850498Y-112102123D01*
X126850497Y-112102116D01*
X126844091Y-112042517D01*
X126814353Y-111962786D01*
X126793797Y-111907671D01*
X126793793Y-111907664D01*
X126707547Y-111792455D01*
X126707544Y-111792452D01*
X126592335Y-111706206D01*
X126592328Y-111706202D01*
X126457482Y-111655908D01*
X126457483Y-111655908D01*
X126397883Y-111649501D01*
X126397881Y-111649500D01*
X126397873Y-111649500D01*
X126397864Y-111649500D01*
X124602129Y-111649500D01*
X124602123Y-111649501D01*
X124542516Y-111655908D01*
X124407671Y-111706202D01*
X124407664Y-111706206D01*
X124292455Y-111792452D01*
X124292452Y-111792455D01*
X124206206Y-111907664D01*
X124206202Y-111907671D01*
X124155908Y-112042517D01*
X124149501Y-112102116D01*
X124149501Y-112102123D01*
X124149500Y-112102135D01*
X117649997Y-112102135D01*
X117643598Y-112042627D01*
X117643596Y-112042620D01*
X117593354Y-111907913D01*
X117593350Y-111907906D01*
X117507190Y-111792812D01*
X117507187Y-111792809D01*
X117392093Y-111706649D01*
X117392086Y-111706645D01*
X117257379Y-111656403D01*
X117257372Y-111656401D01*
X117197844Y-111650000D01*
X116550000Y-111650000D01*
X116550000Y-112566988D01*
X116492993Y-112534075D01*
X116365826Y-112500000D01*
X116234174Y-112500000D01*
X116107007Y-112534075D01*
X116050000Y-112566988D01*
X116050000Y-111650000D01*
X115402155Y-111650000D01*
X115342627Y-111656401D01*
X115342620Y-111656403D01*
X115207913Y-111706645D01*
X115207906Y-111706649D01*
X115092812Y-111792809D01*
X115092809Y-111792812D01*
X115006649Y-111907906D01*
X115006645Y-111907913D01*
X114956403Y-112042620D01*
X114956401Y-112042627D01*
X114950000Y-112102155D01*
X114950000Y-112750000D01*
X115866988Y-112750000D01*
X115834075Y-112807007D01*
X115800000Y-112934174D01*
X115800000Y-113065826D01*
X115834075Y-113192993D01*
X115866988Y-113250000D01*
X114950000Y-113250000D01*
X114950000Y-113897844D01*
X114956401Y-113957372D01*
X114956403Y-113957379D01*
X115006645Y-114092086D01*
X115006649Y-114092093D01*
X115092809Y-114207187D01*
X115092812Y-114207190D01*
X115207906Y-114293350D01*
X115207913Y-114293354D01*
X115339470Y-114342422D01*
X115395404Y-114384293D01*
X115419821Y-114449758D01*
X115404969Y-114518031D01*
X115383819Y-114546285D01*
X115269889Y-114660215D01*
X115144951Y-114832179D01*
X115048444Y-115021585D01*
X114982753Y-115223760D01*
X114949500Y-115433713D01*
X104500000Y-115433713D01*
X104500000Y-106897648D01*
X112849500Y-106897648D01*
X112849500Y-107102351D01*
X112881522Y-107304534D01*
X112944781Y-107499223D01*
X113037715Y-107681613D01*
X113158028Y-107847213D01*
X113302786Y-107991971D01*
X113457749Y-108104556D01*
X113468390Y-108112287D01*
X113584607Y-108171503D01*
X113650776Y-108205218D01*
X113650778Y-108205218D01*
X113650781Y-108205220D01*
X113724655Y-108229223D01*
X113845465Y-108268477D01*
X113946557Y-108284488D01*
X114047648Y-108300500D01*
X114047649Y-108300500D01*
X114252351Y-108300500D01*
X114252352Y-108300500D01*
X114454534Y-108268477D01*
X114649219Y-108205220D01*
X114831610Y-108112287D01*
X114938629Y-108034534D01*
X114997213Y-107991971D01*
X114997215Y-107991968D01*
X114997219Y-107991966D01*
X115141966Y-107847219D01*
X115141968Y-107847215D01*
X115141971Y-107847213D01*
X115194732Y-107774590D01*
X115262287Y-107681610D01*
X115355220Y-107499219D01*
X115418477Y-107304534D01*
X115450500Y-107102352D01*
X115450500Y-106897648D01*
X125549500Y-106897648D01*
X125549500Y-107102351D01*
X125581522Y-107304534D01*
X125644781Y-107499223D01*
X125737715Y-107681613D01*
X125858028Y-107847213D01*
X126002786Y-107991971D01*
X126157749Y-108104556D01*
X126168390Y-108112287D01*
X126284607Y-108171503D01*
X126350776Y-108205218D01*
X126350778Y-108205218D01*
X126350781Y-108205220D01*
X126424655Y-108229223D01*
X126545465Y-108268477D01*
X126646557Y-108284488D01*
X126747648Y-108300500D01*
X126747649Y-108300500D01*
X126952351Y-108300500D01*
X126952352Y-108300500D01*
X127154534Y-108268477D01*
X127349219Y-108205220D01*
X127531610Y-108112287D01*
X127638629Y-108034534D01*
X127697213Y-107991971D01*
X127697215Y-107991968D01*
X127697219Y-107991966D01*
X127841966Y-107847219D01*
X127841968Y-107847215D01*
X127841971Y-107847213D01*
X127894732Y-107774590D01*
X127962287Y-107681610D01*
X128055220Y-107499219D01*
X128118477Y-107304534D01*
X128150500Y-107102352D01*
X128150500Y-106897648D01*
X128118477Y-106695466D01*
X128095469Y-106624656D01*
X128073123Y-106555880D01*
X128055220Y-106500781D01*
X128055218Y-106500778D01*
X128055218Y-106500776D01*
X128016279Y-106424356D01*
X127962287Y-106318390D01*
X127950585Y-106302284D01*
X127841971Y-106152786D01*
X127697213Y-106008028D01*
X127531613Y-105887715D01*
X127531612Y-105887714D01*
X127531610Y-105887713D01*
X127474653Y-105858691D01*
X127349223Y-105794781D01*
X127154534Y-105731522D01*
X126979995Y-105703878D01*
X126952352Y-105699500D01*
X126747648Y-105699500D01*
X126723329Y-105703351D01*
X126545465Y-105731522D01*
X126350776Y-105794781D01*
X126168386Y-105887715D01*
X126002786Y-106008028D01*
X125858028Y-106152786D01*
X125737715Y-106318386D01*
X125644781Y-106500776D01*
X125581522Y-106695465D01*
X125549500Y-106897648D01*
X115450500Y-106897648D01*
X115418477Y-106695466D01*
X115395469Y-106624656D01*
X115373123Y-106555880D01*
X115355220Y-106500781D01*
X115355218Y-106500778D01*
X115355218Y-106500776D01*
X115316279Y-106424356D01*
X115262287Y-106318390D01*
X115250585Y-106302284D01*
X115141971Y-106152786D01*
X114997213Y-106008028D01*
X114831613Y-105887715D01*
X114831612Y-105887714D01*
X114831610Y-105887713D01*
X114774653Y-105858691D01*
X114649223Y-105794781D01*
X114454534Y-105731522D01*
X114279995Y-105703878D01*
X114252352Y-105699500D01*
X114047648Y-105699500D01*
X114023329Y-105703351D01*
X113845465Y-105731522D01*
X113650776Y-105794781D01*
X113468386Y-105887715D01*
X113302786Y-106008028D01*
X113158028Y-106152786D01*
X113037715Y-106318386D01*
X112944781Y-106500776D01*
X112881522Y-106695465D01*
X112849500Y-106897648D01*
X104500000Y-106897648D01*
X104500000Y-100897648D01*
X112849500Y-100897648D01*
X112849500Y-101102351D01*
X112881522Y-101304534D01*
X112944781Y-101499223D01*
X113037715Y-101681613D01*
X113158028Y-101847213D01*
X113302786Y-101991971D01*
X113457749Y-102104556D01*
X113468390Y-102112287D01*
X113584607Y-102171503D01*
X113650776Y-102205218D01*
X113650778Y-102205218D01*
X113650781Y-102205220D01*
X113755137Y-102239127D01*
X113845465Y-102268477D01*
X113946557Y-102284488D01*
X114047648Y-102300500D01*
X114047649Y-102300500D01*
X114252351Y-102300500D01*
X114252352Y-102300500D01*
X114454534Y-102268477D01*
X114649219Y-102205220D01*
X114831610Y-102112287D01*
X114924590Y-102044732D01*
X114997213Y-101991971D01*
X114997215Y-101991968D01*
X114997219Y-101991966D01*
X115141966Y-101847219D01*
X115141968Y-101847215D01*
X115141971Y-101847213D01*
X115194732Y-101774590D01*
X115262287Y-101681610D01*
X115355220Y-101499219D01*
X115418477Y-101304534D01*
X115450500Y-101102352D01*
X115450500Y-100897648D01*
X125549500Y-100897648D01*
X125549500Y-101102351D01*
X125581522Y-101304534D01*
X125644781Y-101499223D01*
X125737715Y-101681613D01*
X125858028Y-101847213D01*
X126002786Y-101991971D01*
X126157749Y-102104556D01*
X126168390Y-102112287D01*
X126284607Y-102171503D01*
X126350776Y-102205218D01*
X126350778Y-102205218D01*
X126350781Y-102205220D01*
X126455137Y-102239127D01*
X126545465Y-102268477D01*
X126646557Y-102284488D01*
X126747648Y-102300500D01*
X126747649Y-102300500D01*
X126952351Y-102300500D01*
X126952352Y-102300500D01*
X127154534Y-102268477D01*
X127349219Y-102205220D01*
X127531610Y-102112287D01*
X127624590Y-102044732D01*
X127697213Y-101991971D01*
X127697215Y-101991968D01*
X127697219Y-101991966D01*
X127841966Y-101847219D01*
X127841968Y-101847215D01*
X127841971Y-101847213D01*
X127894732Y-101774590D01*
X127962287Y-101681610D01*
X128055220Y-101499219D01*
X128118477Y-101304534D01*
X128150500Y-101102352D01*
X128150500Y-100897648D01*
X128118477Y-100695466D01*
X128055220Y-100500781D01*
X128055218Y-100500778D01*
X128055218Y-100500776D01*
X128021503Y-100434607D01*
X127962287Y-100318390D01*
X127954556Y-100307749D01*
X127841971Y-100152786D01*
X127697213Y-100008028D01*
X127531613Y-99887715D01*
X127531612Y-99887714D01*
X127531610Y-99887713D01*
X127474653Y-99858691D01*
X127349223Y-99794781D01*
X127154534Y-99731522D01*
X126979995Y-99703878D01*
X126952352Y-99699500D01*
X126747648Y-99699500D01*
X126723329Y-99703351D01*
X126545465Y-99731522D01*
X126350776Y-99794781D01*
X126168386Y-99887715D01*
X126002786Y-100008028D01*
X125858028Y-100152786D01*
X125737715Y-100318386D01*
X125644781Y-100500776D01*
X125581522Y-100695465D01*
X125549500Y-100897648D01*
X115450500Y-100897648D01*
X115418477Y-100695466D01*
X115355220Y-100500781D01*
X115355218Y-100500778D01*
X115355218Y-100500776D01*
X115321503Y-100434607D01*
X115262287Y-100318390D01*
X115254556Y-100307749D01*
X115141971Y-100152786D01*
X114997213Y-100008028D01*
X114831613Y-99887715D01*
X114831612Y-99887714D01*
X114831610Y-99887713D01*
X114774653Y-99858691D01*
X114649223Y-99794781D01*
X114454534Y-99731522D01*
X114279995Y-99703878D01*
X114252352Y-99699500D01*
X114047648Y-99699500D01*
X114023329Y-99703351D01*
X113845465Y-99731522D01*
X113650776Y-99794781D01*
X113468386Y-99887715D01*
X113302786Y-100008028D01*
X113158028Y-100152786D01*
X113037715Y-100318386D01*
X112944781Y-100500776D01*
X112881522Y-100695465D01*
X112849500Y-100897648D01*
X104500000Y-100897648D01*
X104500000Y-89719984D01*
X115299500Y-89719984D01*
X115299500Y-91720015D01*
X115310000Y-91822795D01*
X115310001Y-91822797D01*
X115313204Y-91832463D01*
X115365186Y-91989335D01*
X115365187Y-91989337D01*
X115457286Y-92138651D01*
X115457289Y-92138655D01*
X115581344Y-92262710D01*
X115581348Y-92262713D01*
X115730662Y-92354812D01*
X115730664Y-92354813D01*
X115730666Y-92354814D01*
X115897203Y-92409999D01*
X115999992Y-92420500D01*
X116275500Y-92420500D01*
X116342539Y-92440185D01*
X116388294Y-92492989D01*
X116399500Y-92544500D01*
X116399500Y-96079056D01*
X116440423Y-96231783D01*
X116440426Y-96231790D01*
X116519475Y-96368709D01*
X116519479Y-96368714D01*
X116519480Y-96368716D01*
X116631284Y-96480520D01*
X116631286Y-96480521D01*
X116631290Y-96480524D01*
X116768209Y-96559573D01*
X116768216Y-96559577D01*
X116920943Y-96600500D01*
X116920945Y-96600500D01*
X117079055Y-96600500D01*
X117079057Y-96600500D01*
X117231784Y-96559577D01*
X117368716Y-96480520D01*
X117480520Y-96368716D01*
X117559577Y-96231784D01*
X117600500Y-96079057D01*
X117600500Y-92544500D01*
X117620185Y-92477461D01*
X117672989Y-92431706D01*
X117724500Y-92420500D01*
X118000003Y-92420500D01*
X118000008Y-92420500D01*
X118102797Y-92409999D01*
X118269334Y-92354814D01*
X118418655Y-92262711D01*
X118542711Y-92138655D01*
X118634814Y-91989334D01*
X118689999Y-91822797D01*
X118700500Y-91720008D01*
X118700500Y-90608575D01*
X122800000Y-90608575D01*
X122800000Y-90831424D01*
X122829085Y-91052354D01*
X122829088Y-91052367D01*
X122886763Y-91267618D01*
X122972045Y-91473502D01*
X122972054Y-91473520D01*
X123083464Y-91666491D01*
X123083473Y-91666504D01*
X123134040Y-91732403D01*
X123134043Y-91732403D01*
X123935387Y-90931059D01*
X123940889Y-90951591D01*
X124019881Y-91088408D01*
X124131592Y-91200119D01*
X124268409Y-91279111D01*
X124288940Y-91284612D01*
X123487595Y-92085955D01*
X123487595Y-92085956D01*
X123553507Y-92136533D01*
X123746485Y-92247949D01*
X123746497Y-92247954D01*
X123952381Y-92333236D01*
X124167632Y-92390911D01*
X124167645Y-92390914D01*
X124388575Y-92420000D01*
X124611425Y-92420000D01*
X124832354Y-92390914D01*
X124832367Y-92390911D01*
X125047618Y-92333236D01*
X125253502Y-92247954D01*
X125253514Y-92247949D01*
X125446498Y-92136530D01*
X125512403Y-92085957D01*
X125512404Y-92085956D01*
X124711059Y-91284612D01*
X124731591Y-91279111D01*
X124868408Y-91200119D01*
X124980119Y-91088408D01*
X125059111Y-90951591D01*
X125064612Y-90931059D01*
X125865956Y-91732404D01*
X125865957Y-91732403D01*
X125916530Y-91666498D01*
X126027949Y-91473514D01*
X126027954Y-91473502D01*
X126113236Y-91267618D01*
X126170911Y-91052367D01*
X126170914Y-91052354D01*
X126200000Y-90831424D01*
X126200000Y-90608575D01*
X126187420Y-90513020D01*
X126185704Y-90499984D01*
X132299500Y-90499984D01*
X132299500Y-92500015D01*
X132310000Y-92602795D01*
X132310001Y-92602797D01*
X132316904Y-92623629D01*
X132365186Y-92769335D01*
X132365187Y-92769337D01*
X132457286Y-92918651D01*
X132457289Y-92918655D01*
X132581344Y-93042710D01*
X132581348Y-93042713D01*
X132730662Y-93134812D01*
X132730664Y-93134813D01*
X132730666Y-93134814D01*
X132897203Y-93189999D01*
X132999992Y-93200500D01*
X132999997Y-93200500D01*
X135000003Y-93200500D01*
X135000008Y-93200500D01*
X135102797Y-93189999D01*
X135269334Y-93134814D01*
X135418655Y-93042711D01*
X135542711Y-92918655D01*
X135634814Y-92769334D01*
X135689999Y-92602797D01*
X135700500Y-92500008D01*
X135700500Y-90499992D01*
X135689999Y-90397203D01*
X135634814Y-90230666D01*
X135627468Y-90218757D01*
X135542713Y-90081348D01*
X135542710Y-90081344D01*
X135418655Y-89957289D01*
X135418651Y-89957286D01*
X135269337Y-89865187D01*
X135269335Y-89865186D01*
X135158907Y-89828594D01*
X135102797Y-89810001D01*
X135102795Y-89810000D01*
X135000015Y-89799500D01*
X135000008Y-89799500D01*
X132999992Y-89799500D01*
X132999984Y-89799500D01*
X132897204Y-89810000D01*
X132897203Y-89810001D01*
X132730664Y-89865186D01*
X132730662Y-89865187D01*
X132581348Y-89957286D01*
X132581344Y-89957289D01*
X132457289Y-90081344D01*
X132457286Y-90081348D01*
X132365187Y-90230662D01*
X132365186Y-90230664D01*
X132310001Y-90397203D01*
X132310000Y-90397204D01*
X132299500Y-90499984D01*
X126185704Y-90499984D01*
X126170914Y-90387645D01*
X126170911Y-90387632D01*
X126113236Y-90172381D01*
X126027954Y-89966497D01*
X126027949Y-89966485D01*
X125916533Y-89773507D01*
X125865956Y-89707595D01*
X125865955Y-89707595D01*
X125064612Y-90508939D01*
X125059111Y-90488409D01*
X124980119Y-90351592D01*
X124868408Y-90239881D01*
X124731591Y-90160889D01*
X124711058Y-90155387D01*
X125512403Y-89354043D01*
X125512403Y-89354040D01*
X125446504Y-89303473D01*
X125446491Y-89303464D01*
X125253520Y-89192054D01*
X125253502Y-89192045D01*
X125047618Y-89106763D01*
X124832367Y-89049088D01*
X124832354Y-89049085D01*
X124611425Y-89020000D01*
X124388575Y-89020000D01*
X124167645Y-89049085D01*
X124167632Y-89049088D01*
X123952381Y-89106763D01*
X123746497Y-89192045D01*
X123746479Y-89192054D01*
X123553511Y-89303462D01*
X123487595Y-89354042D01*
X124288941Y-90155387D01*
X124268409Y-90160889D01*
X124131592Y-90239881D01*
X124019881Y-90351592D01*
X123940889Y-90488409D01*
X123935387Y-90508940D01*
X123134042Y-89707595D01*
X123083462Y-89773511D01*
X122972054Y-89966479D01*
X122972045Y-89966497D01*
X122886763Y-90172381D01*
X122829088Y-90387632D01*
X122829085Y-90387645D01*
X122800000Y-90608575D01*
X118700500Y-90608575D01*
X118700500Y-89719992D01*
X118689999Y-89617203D01*
X118634814Y-89450666D01*
X118542711Y-89301345D01*
X118418655Y-89177289D01*
X118418651Y-89177286D01*
X118269337Y-89085187D01*
X118269335Y-89085186D01*
X118186065Y-89057593D01*
X118102797Y-89030001D01*
X118102795Y-89030000D01*
X118000015Y-89019500D01*
X118000008Y-89019500D01*
X115999992Y-89019500D01*
X115999984Y-89019500D01*
X115897204Y-89030000D01*
X115897203Y-89030001D01*
X115730664Y-89085186D01*
X115730662Y-89085187D01*
X115581348Y-89177286D01*
X115581344Y-89177289D01*
X115457289Y-89301344D01*
X115457286Y-89301348D01*
X115365187Y-89450662D01*
X115365186Y-89450664D01*
X115310001Y-89617203D01*
X115310000Y-89617204D01*
X115299500Y-89719984D01*
X104500000Y-89719984D01*
X104500000Y-81124000D01*
X104519685Y-81056961D01*
X104572489Y-81011206D01*
X104624000Y-81000000D01*
X147876000Y-81000000D01*
X147943039Y-81019685D01*
G37*
%TD.AperFunction*%
%TD*%
M02*
