%TF.GenerationSoftware,KiCad,Pcbnew,9.0.2*%
%TF.CreationDate,2026-06-11T16:06:00+05:30*%
%TF.ProjectId,noob,6e6f6f62-2e6b-4696-9361-645f70636258,rev?*%
%TF.SameCoordinates,Original*%
%TF.FileFunction,Legend,Bot*%
%TF.FilePolarity,Positive*%
%FSLAX46Y46*%
G04 Gerber Fmt 4.6, Leading zero omitted, Abs format (unit mm)*
G04 Created by KiCad (PCBNEW 9.0.2) date 2026-06-11 16:06:00*
%MOMM*%
%LPD*%
G01*
G04 APERTURE LIST*
%ADD10C,0.100000*%
G04 APERTURE END LIST*
D10*
X141696115Y-117372419D02*
X141696115Y-116705752D01*
X141696115Y-116896228D02*
X141648496Y-116800990D01*
X141648496Y-116800990D02*
X141600877Y-116753371D01*
X141600877Y-116753371D02*
X141505639Y-116705752D01*
X141505639Y-116705752D02*
X141410401Y-116705752D01*
X140696115Y-117324800D02*
X140791353Y-117372419D01*
X140791353Y-117372419D02*
X140981829Y-117372419D01*
X140981829Y-117372419D02*
X141077067Y-117324800D01*
X141077067Y-117324800D02*
X141124686Y-117229561D01*
X141124686Y-117229561D02*
X141124686Y-116848609D01*
X141124686Y-116848609D02*
X141077067Y-116753371D01*
X141077067Y-116753371D02*
X140981829Y-116705752D01*
X140981829Y-116705752D02*
X140791353Y-116705752D01*
X140791353Y-116705752D02*
X140696115Y-116753371D01*
X140696115Y-116753371D02*
X140648496Y-116848609D01*
X140648496Y-116848609D02*
X140648496Y-116943847D01*
X140648496Y-116943847D02*
X141124686Y-117039085D01*
X140315162Y-116705752D02*
X140077067Y-117372419D01*
X140077067Y-117372419D02*
X139838972Y-116705752D01*
X138172305Y-117372419D02*
X138743733Y-117372419D01*
X138458019Y-117372419D02*
X138458019Y-116372419D01*
X138458019Y-116372419D02*
X138553257Y-116515276D01*
X138553257Y-116515276D02*
X138648495Y-116610514D01*
X138648495Y-116610514D02*
X138743733Y-116658133D01*
X137743733Y-117277180D02*
X137696114Y-117324800D01*
X137696114Y-117324800D02*
X137743733Y-117372419D01*
X137743733Y-117372419D02*
X137791352Y-117324800D01*
X137791352Y-117324800D02*
X137743733Y-117277180D01*
X137743733Y-117277180D02*
X137743733Y-117372419D01*
X137077067Y-116372419D02*
X136981829Y-116372419D01*
X136981829Y-116372419D02*
X136886591Y-116420038D01*
X136886591Y-116420038D02*
X136838972Y-116467657D01*
X136838972Y-116467657D02*
X136791353Y-116562895D01*
X136791353Y-116562895D02*
X136743734Y-116753371D01*
X136743734Y-116753371D02*
X136743734Y-116991466D01*
X136743734Y-116991466D02*
X136791353Y-117181942D01*
X136791353Y-117181942D02*
X136838972Y-117277180D01*
X136838972Y-117277180D02*
X136886591Y-117324800D01*
X136886591Y-117324800D02*
X136981829Y-117372419D01*
X136981829Y-117372419D02*
X137077067Y-117372419D01*
X137077067Y-117372419D02*
X137172305Y-117324800D01*
X137172305Y-117324800D02*
X137219924Y-117277180D01*
X137219924Y-117277180D02*
X137267543Y-117181942D01*
X137267543Y-117181942D02*
X137315162Y-116991466D01*
X137315162Y-116991466D02*
X137315162Y-116753371D01*
X137315162Y-116753371D02*
X137267543Y-116562895D01*
X137267543Y-116562895D02*
X137219924Y-116467657D01*
X137219924Y-116467657D02*
X137172305Y-116420038D01*
X137172305Y-116420038D02*
X137077067Y-116372419D01*
M02*
