%TF.GenerationSoftware,KiCad,Pcbnew,9.0.2*%
%TF.CreationDate,2026-06-11T16:06:00+05:30*%
%TF.ProjectId,noob,6e6f6f62-2e6b-4696-9361-645f70636258,rev?*%
%TF.SameCoordinates,Original*%
%TF.FileFunction,Legend,Top*%
%TF.FilePolarity,Positive*%
%FSLAX46Y46*%
G04 Gerber Fmt 4.6, Leading zero omitted, Abs format (unit mm)*
G04 Created by KiCad (PCBNEW 9.0.2) date 2026-06-11 16:06:00*
%MOMM*%
%LPD*%
G01*
G04 APERTURE LIST*
%ADD10C,0.150000*%
%ADD11C,0.120000*%
G04 APERTURE END LIST*
D10*
X120583333Y-83579580D02*
X120535714Y-83627200D01*
X120535714Y-83627200D02*
X120392857Y-83674819D01*
X120392857Y-83674819D02*
X120297619Y-83674819D01*
X120297619Y-83674819D02*
X120154762Y-83627200D01*
X120154762Y-83627200D02*
X120059524Y-83531961D01*
X120059524Y-83531961D02*
X120011905Y-83436723D01*
X120011905Y-83436723D02*
X119964286Y-83246247D01*
X119964286Y-83246247D02*
X119964286Y-83103390D01*
X119964286Y-83103390D02*
X120011905Y-82912914D01*
X120011905Y-82912914D02*
X120059524Y-82817676D01*
X120059524Y-82817676D02*
X120154762Y-82722438D01*
X120154762Y-82722438D02*
X120297619Y-82674819D01*
X120297619Y-82674819D02*
X120392857Y-82674819D01*
X120392857Y-82674819D02*
X120535714Y-82722438D01*
X120535714Y-82722438D02*
X120583333Y-82770057D01*
X121535714Y-83674819D02*
X120964286Y-83674819D01*
X121250000Y-83674819D02*
X121250000Y-82674819D01*
X121250000Y-82674819D02*
X121154762Y-82817676D01*
X121154762Y-82817676D02*
X121059524Y-82912914D01*
X121059524Y-82912914D02*
X120964286Y-82960533D01*
X120333333Y-104734819D02*
X120000000Y-104258628D01*
X119761905Y-104734819D02*
X119761905Y-103734819D01*
X119761905Y-103734819D02*
X120142857Y-103734819D01*
X120142857Y-103734819D02*
X120238095Y-103782438D01*
X120238095Y-103782438D02*
X120285714Y-103830057D01*
X120285714Y-103830057D02*
X120333333Y-103925295D01*
X120333333Y-103925295D02*
X120333333Y-104068152D01*
X120333333Y-104068152D02*
X120285714Y-104163390D01*
X120285714Y-104163390D02*
X120238095Y-104211009D01*
X120238095Y-104211009D02*
X120142857Y-104258628D01*
X120142857Y-104258628D02*
X119761905Y-104258628D01*
X121285714Y-104734819D02*
X120714286Y-104734819D01*
X121000000Y-104734819D02*
X121000000Y-103734819D01*
X121000000Y-103734819D02*
X120904762Y-103877676D01*
X120904762Y-103877676D02*
X120809524Y-103972914D01*
X120809524Y-103972914D02*
X120714286Y-104020533D01*
X121904761Y-98454819D02*
X121333333Y-98454819D01*
X121619047Y-98454819D02*
X121619047Y-97454819D01*
X121619047Y-97454819D02*
X121523809Y-97597676D01*
X121523809Y-97597676D02*
X121428571Y-97692914D01*
X121428571Y-97692914D02*
X121333333Y-97740533D01*
X122333333Y-98454819D02*
X122333333Y-97454819D01*
X122428571Y-98073866D02*
X122714285Y-98454819D01*
X122714285Y-97788152D02*
X122333333Y-98169104D01*
X123666666Y-98454819D02*
X123095238Y-98454819D01*
X123380952Y-98454819D02*
X123380952Y-97454819D01*
X123380952Y-97454819D02*
X123285714Y-97597676D01*
X123285714Y-97597676D02*
X123190476Y-97692914D01*
X123190476Y-97692914D02*
X123095238Y-97740533D01*
X125238095Y-108934819D02*
X125809523Y-108934819D01*
X125523809Y-109934819D02*
X125523809Y-108934819D01*
X126142857Y-109934819D02*
X126142857Y-108934819D01*
X126142857Y-108934819D02*
X126523809Y-108934819D01*
X126523809Y-108934819D02*
X126619047Y-108982438D01*
X126619047Y-108982438D02*
X126666666Y-109030057D01*
X126666666Y-109030057D02*
X126714285Y-109125295D01*
X126714285Y-109125295D02*
X126714285Y-109268152D01*
X126714285Y-109268152D02*
X126666666Y-109363390D01*
X126666666Y-109363390D02*
X126619047Y-109411009D01*
X126619047Y-109411009D02*
X126523809Y-109458628D01*
X126523809Y-109458628D02*
X126142857Y-109458628D01*
X127047619Y-108934819D02*
X127666666Y-108934819D01*
X127666666Y-108934819D02*
X127333333Y-109315771D01*
X127333333Y-109315771D02*
X127476190Y-109315771D01*
X127476190Y-109315771D02*
X127571428Y-109363390D01*
X127571428Y-109363390D02*
X127619047Y-109411009D01*
X127619047Y-109411009D02*
X127666666Y-109506247D01*
X127666666Y-109506247D02*
X127666666Y-109744342D01*
X127666666Y-109744342D02*
X127619047Y-109839580D01*
X127619047Y-109839580D02*
X127571428Y-109887200D01*
X127571428Y-109887200D02*
X127476190Y-109934819D01*
X127476190Y-109934819D02*
X127190476Y-109934819D01*
X127190476Y-109934819D02*
X127095238Y-109887200D01*
X127095238Y-109887200D02*
X127047619Y-109839580D01*
X116038095Y-108934819D02*
X116609523Y-108934819D01*
X116323809Y-109934819D02*
X116323809Y-108934819D01*
X116942857Y-109934819D02*
X116942857Y-108934819D01*
X116942857Y-108934819D02*
X117323809Y-108934819D01*
X117323809Y-108934819D02*
X117419047Y-108982438D01*
X117419047Y-108982438D02*
X117466666Y-109030057D01*
X117466666Y-109030057D02*
X117514285Y-109125295D01*
X117514285Y-109125295D02*
X117514285Y-109268152D01*
X117514285Y-109268152D02*
X117466666Y-109363390D01*
X117466666Y-109363390D02*
X117419047Y-109411009D01*
X117419047Y-109411009D02*
X117323809Y-109458628D01*
X117323809Y-109458628D02*
X116942857Y-109458628D01*
X118466666Y-109934819D02*
X117895238Y-109934819D01*
X118180952Y-109934819D02*
X118180952Y-108934819D01*
X118180952Y-108934819D02*
X118085714Y-109077676D01*
X118085714Y-109077676D02*
X117990476Y-109172914D01*
X117990476Y-109172914D02*
X117895238Y-109220533D01*
X133743095Y-101814819D02*
X133743095Y-102624342D01*
X133743095Y-102624342D02*
X133790714Y-102719580D01*
X133790714Y-102719580D02*
X133838333Y-102767200D01*
X133838333Y-102767200D02*
X133933571Y-102814819D01*
X133933571Y-102814819D02*
X134124047Y-102814819D01*
X134124047Y-102814819D02*
X134219285Y-102767200D01*
X134219285Y-102767200D02*
X134266904Y-102719580D01*
X134266904Y-102719580D02*
X134314523Y-102624342D01*
X134314523Y-102624342D02*
X134314523Y-101814819D01*
X135314523Y-102814819D02*
X134743095Y-102814819D01*
X135028809Y-102814819D02*
X135028809Y-101814819D01*
X135028809Y-101814819D02*
X134933571Y-101957676D01*
X134933571Y-101957676D02*
X134838333Y-102052914D01*
X134838333Y-102052914D02*
X134743095Y-102100533D01*
X136333333Y-84359580D02*
X136285714Y-84407200D01*
X136285714Y-84407200D02*
X136142857Y-84454819D01*
X136142857Y-84454819D02*
X136047619Y-84454819D01*
X136047619Y-84454819D02*
X135904762Y-84407200D01*
X135904762Y-84407200D02*
X135809524Y-84311961D01*
X135809524Y-84311961D02*
X135761905Y-84216723D01*
X135761905Y-84216723D02*
X135714286Y-84026247D01*
X135714286Y-84026247D02*
X135714286Y-83883390D01*
X135714286Y-83883390D02*
X135761905Y-83692914D01*
X135761905Y-83692914D02*
X135809524Y-83597676D01*
X135809524Y-83597676D02*
X135904762Y-83502438D01*
X135904762Y-83502438D02*
X136047619Y-83454819D01*
X136047619Y-83454819D02*
X136142857Y-83454819D01*
X136142857Y-83454819D02*
X136285714Y-83502438D01*
X136285714Y-83502438D02*
X136333333Y-83550057D01*
X136714286Y-83550057D02*
X136761905Y-83502438D01*
X136761905Y-83502438D02*
X136857143Y-83454819D01*
X136857143Y-83454819D02*
X137095238Y-83454819D01*
X137095238Y-83454819D02*
X137190476Y-83502438D01*
X137190476Y-83502438D02*
X137238095Y-83550057D01*
X137238095Y-83550057D02*
X137285714Y-83645295D01*
X137285714Y-83645295D02*
X137285714Y-83740533D01*
X137285714Y-83740533D02*
X137238095Y-83883390D01*
X137238095Y-83883390D02*
X136666667Y-84454819D01*
X136666667Y-84454819D02*
X137285714Y-84454819D01*
D11*
%TO.C,C1*%
X113932918Y-87145000D02*
X115182918Y-87145000D01*
X114557918Y-86520000D02*
X114557918Y-87770000D01*
X120750000Y-84390000D02*
X120750000Y-97050000D01*
X120790000Y-84390000D02*
X120790000Y-97050000D01*
X120830000Y-84391000D02*
X120830000Y-97049000D01*
X120870000Y-84391000D02*
X120870000Y-97049000D01*
X120910000Y-84392000D02*
X120910000Y-97048000D01*
X120950000Y-84393000D02*
X120950000Y-97047000D01*
X120990000Y-84395000D02*
X120990000Y-97045000D01*
X121030000Y-84396000D02*
X121030000Y-97044000D01*
X121070000Y-84398000D02*
X121070000Y-97042000D01*
X121110000Y-84400000D02*
X121110000Y-97040000D01*
X121150000Y-84403000D02*
X121150000Y-97037000D01*
X121190000Y-84405000D02*
X121190000Y-97035000D01*
X121230000Y-84408000D02*
X121230000Y-97032000D01*
X121270000Y-84411000D02*
X121270000Y-97029000D01*
X121310000Y-84415000D02*
X121310000Y-97025000D01*
X121350000Y-84418000D02*
X121350000Y-97022000D01*
X121390000Y-84422000D02*
X121390000Y-97018000D01*
X121430000Y-84426000D02*
X121430000Y-97014000D01*
X121470000Y-84431000D02*
X121470000Y-97009000D01*
X121510000Y-84436000D02*
X121510000Y-97004000D01*
X121550000Y-84440000D02*
X121550000Y-97000000D01*
X121590000Y-84446000D02*
X121590000Y-96994000D01*
X121630000Y-84451000D02*
X121630000Y-96989000D01*
X121670000Y-84457000D02*
X121670000Y-96983000D01*
X121710000Y-84463000D02*
X121710000Y-96977000D01*
X121750000Y-84469000D02*
X121750000Y-96971000D01*
X121790000Y-84475000D02*
X121790000Y-96965000D01*
X121830000Y-84482000D02*
X121830000Y-96958000D01*
X121870000Y-84489000D02*
X121870000Y-96951000D01*
X121910000Y-84497000D02*
X121910000Y-96943000D01*
X121950000Y-84504000D02*
X121950000Y-96936000D01*
X121990000Y-84512000D02*
X121990000Y-96928000D01*
X122030000Y-84520000D02*
X122030000Y-96920000D01*
X122070000Y-84528000D02*
X122070000Y-96912000D01*
X122110000Y-84537000D02*
X122110000Y-96903000D01*
X122150000Y-84546000D02*
X122150000Y-96894000D01*
X122190000Y-84555000D02*
X122190000Y-96885000D01*
X122230000Y-84564000D02*
X122230000Y-96876000D01*
X122270000Y-84574000D02*
X122270000Y-96866000D01*
X122310000Y-84584000D02*
X122310000Y-96856000D01*
X122350000Y-84594000D02*
X122350000Y-96846000D01*
X122390000Y-84605000D02*
X122390000Y-96835000D01*
X122430000Y-84616000D02*
X122430000Y-96824000D01*
X122470000Y-84627000D02*
X122470000Y-96813000D01*
X122510000Y-84638000D02*
X122510000Y-96802000D01*
X122550000Y-84650000D02*
X122550000Y-96790000D01*
X122590000Y-84662000D02*
X122590000Y-96778000D01*
X122630000Y-84674000D02*
X122630000Y-96766000D01*
X122670000Y-84686000D02*
X122670000Y-96754000D01*
X122710000Y-84699000D02*
X122710000Y-96741000D01*
X122750000Y-84712000D02*
X122750000Y-96728000D01*
X122790000Y-84725000D02*
X122790000Y-96715000D01*
X122830000Y-84739000D02*
X122830000Y-96701000D01*
X122870000Y-84753000D02*
X122870000Y-96687000D01*
X122910000Y-84767000D02*
X122910000Y-96673000D01*
X122950000Y-84782000D02*
X122950000Y-96658000D01*
X122990000Y-84797000D02*
X122990000Y-96643000D01*
X123030000Y-84812000D02*
X123030000Y-96628000D01*
X123070000Y-84828000D02*
X123070000Y-89280000D01*
X123070000Y-92160000D02*
X123070000Y-96612000D01*
X123110000Y-84843000D02*
X123110000Y-89280000D01*
X123110000Y-92160000D02*
X123110000Y-96597000D01*
X123150000Y-84859000D02*
X123150000Y-89280000D01*
X123150000Y-92160000D02*
X123150000Y-96581000D01*
X123190000Y-84876000D02*
X123190000Y-89280000D01*
X123190000Y-92160000D02*
X123190000Y-96564000D01*
X123230000Y-84893000D02*
X123230000Y-89280000D01*
X123230000Y-92160000D02*
X123230000Y-96547000D01*
X123270000Y-84910000D02*
X123270000Y-89280000D01*
X123270000Y-92160000D02*
X123270000Y-96530000D01*
X123310000Y-84927000D02*
X123310000Y-89280000D01*
X123310000Y-92160000D02*
X123310000Y-96513000D01*
X123350000Y-84945000D02*
X123350000Y-89280000D01*
X123350000Y-92160000D02*
X123350000Y-96495000D01*
X123390000Y-84963000D02*
X123390000Y-89280000D01*
X123390000Y-92160000D02*
X123390000Y-96477000D01*
X123430000Y-84981000D02*
X123430000Y-89280000D01*
X123430000Y-92160000D02*
X123430000Y-96459000D01*
X123470000Y-85000000D02*
X123470000Y-89280000D01*
X123470000Y-92160000D02*
X123470000Y-96440000D01*
X123510000Y-85019000D02*
X123510000Y-89280000D01*
X123510000Y-92160000D02*
X123510000Y-96421000D01*
X123550000Y-85038000D02*
X123550000Y-89280000D01*
X123550000Y-92160000D02*
X123550000Y-96402000D01*
X123590000Y-85058000D02*
X123590000Y-89280000D01*
X123590000Y-92160000D02*
X123590000Y-96382000D01*
X123630000Y-85078000D02*
X123630000Y-89280000D01*
X123630000Y-92160000D02*
X123630000Y-96362000D01*
X123670000Y-85099000D02*
X123670000Y-89280000D01*
X123670000Y-92160000D02*
X123670000Y-96341000D01*
X123710000Y-85119000D02*
X123710000Y-89280000D01*
X123710000Y-92160000D02*
X123710000Y-96321000D01*
X123750000Y-85141000D02*
X123750000Y-89280000D01*
X123750000Y-92160000D02*
X123750000Y-96299000D01*
X123790000Y-85162000D02*
X123790000Y-89280000D01*
X123790000Y-92160000D02*
X123790000Y-96278000D01*
X123830000Y-85184000D02*
X123830000Y-89280000D01*
X123830000Y-92160000D02*
X123830000Y-96256000D01*
X123870000Y-85206000D02*
X123870000Y-89280000D01*
X123870000Y-92160000D02*
X123870000Y-96234000D01*
X123910000Y-85229000D02*
X123910000Y-89280000D01*
X123910000Y-92160000D02*
X123910000Y-96211000D01*
X123950000Y-85252000D02*
X123950000Y-89280000D01*
X123950000Y-92160000D02*
X123950000Y-96188000D01*
X123990000Y-85276000D02*
X123990000Y-89280000D01*
X123990000Y-92160000D02*
X123990000Y-96164000D01*
X124030000Y-85299000D02*
X124030000Y-89280000D01*
X124030000Y-92160000D02*
X124030000Y-96141000D01*
X124070000Y-85324000D02*
X124070000Y-89280000D01*
X124070000Y-92160000D02*
X124070000Y-96116000D01*
X124110000Y-85348000D02*
X124110000Y-89280000D01*
X124110000Y-92160000D02*
X124110000Y-96092000D01*
X124150000Y-85373000D02*
X124150000Y-89280000D01*
X124150000Y-92160000D02*
X124150000Y-96067000D01*
X124190000Y-85399000D02*
X124190000Y-89280000D01*
X124190000Y-92160000D02*
X124190000Y-96041000D01*
X124230000Y-85425000D02*
X124230000Y-89280000D01*
X124230000Y-92160000D02*
X124230000Y-96015000D01*
X124270000Y-85451000D02*
X124270000Y-89280000D01*
X124270000Y-92160000D02*
X124270000Y-95989000D01*
X124310000Y-85478000D02*
X124310000Y-89280000D01*
X124310000Y-92160000D02*
X124310000Y-95962000D01*
X124350000Y-85505000D02*
X124350000Y-89280000D01*
X124350000Y-92160000D02*
X124350000Y-95935000D01*
X124390000Y-85532000D02*
X124390000Y-89280000D01*
X124390000Y-92160000D02*
X124390000Y-95908000D01*
X124430000Y-85561000D02*
X124430000Y-89280000D01*
X124430000Y-92160000D02*
X124430000Y-95879000D01*
X124470000Y-85589000D02*
X124470000Y-89280000D01*
X124470000Y-92160000D02*
X124470000Y-95851000D01*
X124510000Y-85618000D02*
X124510000Y-89280000D01*
X124510000Y-92160000D02*
X124510000Y-95822000D01*
X124550000Y-85648000D02*
X124550000Y-89280000D01*
X124550000Y-92160000D02*
X124550000Y-95792000D01*
X124590000Y-85678000D02*
X124590000Y-89280000D01*
X124590000Y-92160000D02*
X124590000Y-95762000D01*
X124630000Y-85708000D02*
X124630000Y-89280000D01*
X124630000Y-92160000D02*
X124630000Y-95732000D01*
X124670000Y-85739000D02*
X124670000Y-89280000D01*
X124670000Y-92160000D02*
X124670000Y-95701000D01*
X124710000Y-85770000D02*
X124710000Y-89280000D01*
X124710000Y-92160000D02*
X124710000Y-95670000D01*
X124750000Y-85802000D02*
X124750000Y-89280000D01*
X124750000Y-92160000D02*
X124750000Y-95638000D01*
X124790000Y-85835000D02*
X124790000Y-89280000D01*
X124790000Y-92160000D02*
X124790000Y-95605000D01*
X124830000Y-85868000D02*
X124830000Y-89280000D01*
X124830000Y-92160000D02*
X124830000Y-95572000D01*
X124870000Y-85902000D02*
X124870000Y-89280000D01*
X124870000Y-92160000D02*
X124870000Y-95538000D01*
X124910000Y-85936000D02*
X124910000Y-89280000D01*
X124910000Y-92160000D02*
X124910000Y-95504000D01*
X124950000Y-85971000D02*
X124950000Y-89280000D01*
X124950000Y-92160000D02*
X124950000Y-95469000D01*
X124990000Y-86006000D02*
X124990000Y-89280000D01*
X124990000Y-92160000D02*
X124990000Y-95434000D01*
X125030000Y-86042000D02*
X125030000Y-89280000D01*
X125030000Y-92160000D02*
X125030000Y-95398000D01*
X125070000Y-86079000D02*
X125070000Y-89280000D01*
X125070000Y-92160000D02*
X125070000Y-95361000D01*
X125110000Y-86116000D02*
X125110000Y-89280000D01*
X125110000Y-92160000D02*
X125110000Y-95324000D01*
X125150000Y-86154000D02*
X125150000Y-89280000D01*
X125150000Y-92160000D02*
X125150000Y-95286000D01*
X125190000Y-86192000D02*
X125190000Y-89280000D01*
X125190000Y-92160000D02*
X125190000Y-95248000D01*
X125230000Y-86232000D02*
X125230000Y-89280000D01*
X125230000Y-92160000D02*
X125230000Y-95208000D01*
X125270000Y-86272000D02*
X125270000Y-89280000D01*
X125270000Y-92160000D02*
X125270000Y-95168000D01*
X125310000Y-86312000D02*
X125310000Y-89280000D01*
X125310000Y-92160000D02*
X125310000Y-95128000D01*
X125350000Y-86354000D02*
X125350000Y-89280000D01*
X125350000Y-92160000D02*
X125350000Y-95086000D01*
X125390000Y-86396000D02*
X125390000Y-89280000D01*
X125390000Y-92160000D02*
X125390000Y-95044000D01*
X125430000Y-86439000D02*
X125430000Y-89280000D01*
X125430000Y-92160000D02*
X125430000Y-95001000D01*
X125470000Y-86482000D02*
X125470000Y-89280000D01*
X125470000Y-92160000D02*
X125470000Y-94958000D01*
X125510000Y-86527000D02*
X125510000Y-89280000D01*
X125510000Y-92160000D02*
X125510000Y-94913000D01*
X125550000Y-86572000D02*
X125550000Y-89280000D01*
X125550000Y-92160000D02*
X125550000Y-94868000D01*
X125590000Y-86619000D02*
X125590000Y-89280000D01*
X125590000Y-92160000D02*
X125590000Y-94821000D01*
X125630000Y-86666000D02*
X125630000Y-89280000D01*
X125630000Y-92160000D02*
X125630000Y-94774000D01*
X125670000Y-86714000D02*
X125670000Y-89280000D01*
X125670000Y-92160000D02*
X125670000Y-94726000D01*
X125710000Y-86763000D02*
X125710000Y-89280000D01*
X125710000Y-92160000D02*
X125710000Y-94677000D01*
X125750000Y-86813000D02*
X125750000Y-89280000D01*
X125750000Y-92160000D02*
X125750000Y-94627000D01*
X125790000Y-86864000D02*
X125790000Y-89280000D01*
X125790000Y-92160000D02*
X125790000Y-94576000D01*
X125830000Y-86917000D02*
X125830000Y-89280000D01*
X125830000Y-92160000D02*
X125830000Y-94523000D01*
X125870000Y-86970000D02*
X125870000Y-89280000D01*
X125870000Y-92160000D02*
X125870000Y-94470000D01*
X125910000Y-87025000D02*
X125910000Y-89280000D01*
X125910000Y-92160000D02*
X125910000Y-94415000D01*
X125950000Y-87081000D02*
X125950000Y-94359000D01*
X125990000Y-87138000D02*
X125990000Y-94302000D01*
X126030000Y-87197000D02*
X126030000Y-94243000D01*
X126070000Y-87257000D02*
X126070000Y-94183000D01*
X126110000Y-87318000D02*
X126110000Y-94122000D01*
X126150000Y-87381000D02*
X126150000Y-94059000D01*
X126190000Y-87446000D02*
X126190000Y-93994000D01*
X126230000Y-87512000D02*
X126230000Y-93928000D01*
X126270000Y-87581000D02*
X126270000Y-93859000D01*
X126310000Y-87651000D02*
X126310000Y-93789000D01*
X126350000Y-87724000D02*
X126350000Y-93716000D01*
X126390000Y-87799000D02*
X126390000Y-93641000D01*
X126430000Y-87877000D02*
X126430000Y-93563000D01*
X126470000Y-87957000D02*
X126470000Y-93483000D01*
X126510000Y-88040000D02*
X126510000Y-93400000D01*
X126550000Y-88126000D02*
X126550000Y-93314000D01*
X126590000Y-88216000D02*
X126590000Y-93224000D01*
X126630000Y-88310000D02*
X126630000Y-93130000D01*
X126670000Y-88408000D02*
X126670000Y-93032000D01*
X126710000Y-88512000D02*
X126710000Y-92928000D01*
X126750000Y-88621000D02*
X126750000Y-92819000D01*
X126790000Y-88736000D02*
X126790000Y-92704000D01*
X126830000Y-88860000D02*
X126830000Y-92580000D01*
X126870000Y-88993000D02*
X126870000Y-92447000D01*
X126910000Y-89138000D02*
X126910000Y-92302000D01*
X126950000Y-89298000D02*
X126950000Y-92142000D01*
X126990000Y-89480000D02*
X126990000Y-91960000D01*
X127030000Y-89693000D02*
X127030000Y-91747000D01*
X127070000Y-89963000D02*
X127070000Y-91477000D01*
X127110000Y-90403000D02*
X127110000Y-91037000D01*
X127120000Y-90720000D02*
G75*
G02*
X114380000Y-90720000I-6370000J0D01*
G01*
X114380000Y-90720000D02*
G75*
G02*
X127120000Y-90720000I6370000J0D01*
G01*
%TO.C,R1*%
X115190000Y-107000000D02*
X115880000Y-107000000D01*
X125810000Y-107000000D02*
X125120000Y-107000000D01*
X115880000Y-105280000D02*
X125120000Y-105280000D01*
X125120000Y-108720000D01*
X115880000Y-108720000D01*
X115880000Y-105280000D01*
%TO.C,1k1*%
X115190000Y-101000000D02*
X115880000Y-101000000D01*
X125810000Y-101000000D02*
X125120000Y-101000000D01*
X115880000Y-99280000D02*
X125120000Y-99280000D01*
X125120000Y-102720000D01*
X115880000Y-102720000D01*
X115880000Y-99280000D01*
%TO.C,TP3*%
X126830000Y-114270000D02*
X126830000Y-116870000D01*
X126830000Y-111670000D02*
X126830000Y-113000000D01*
X125500000Y-111670000D02*
X126830000Y-111670000D01*
X124170000Y-116870000D02*
X126830000Y-116870000D01*
X124170000Y-114270000D02*
X126830000Y-114270000D01*
X124170000Y-114270000D02*
X124170000Y-116870000D01*
%TO.C,TP1*%
X117630000Y-114270000D02*
X117630000Y-116870000D01*
X117630000Y-111670000D02*
X117630000Y-113000000D01*
X116300000Y-111670000D02*
X117630000Y-111670000D01*
X114970000Y-116870000D02*
X117630000Y-116870000D01*
X114970000Y-114270000D02*
X117630000Y-114270000D01*
X114970000Y-114270000D02*
X114970000Y-116870000D01*
%TO.C,U1*%
X135005000Y-103860000D02*
G75*
G02*
X133005000Y-103860000I-1000000J0D01*
G01*
X136655000Y-114140000D02*
X136655000Y-103860000D01*
X136655000Y-103860000D02*
X135005000Y-103860000D01*
X133005000Y-103860000D02*
X131355000Y-103860000D01*
X131355000Y-114140000D02*
X136655000Y-114140000D01*
X131355000Y-103860000D02*
X131355000Y-114140000D01*
%TO.C,C2*%
X142870000Y-91500000D02*
G75*
G02*
X130130000Y-91500000I-6370000J0D01*
G01*
X130130000Y-91500000D02*
G75*
G02*
X142870000Y-91500000I6370000J0D01*
G01*
X142860000Y-91183000D02*
X142860000Y-91817000D01*
X142820000Y-90743000D02*
X142820000Y-92257000D01*
X142780000Y-90473000D02*
X142780000Y-92527000D01*
X142740000Y-90260000D02*
X142740000Y-92740000D01*
X142700000Y-90078000D02*
X142700000Y-92922000D01*
X142660000Y-89918000D02*
X142660000Y-93082000D01*
X142620000Y-89773000D02*
X142620000Y-93227000D01*
X142580000Y-89640000D02*
X142580000Y-93360000D01*
X142540000Y-89516000D02*
X142540000Y-93484000D01*
X142500000Y-89401000D02*
X142500000Y-93599000D01*
X142460000Y-89292000D02*
X142460000Y-93708000D01*
X142420000Y-89188000D02*
X142420000Y-93812000D01*
X142380000Y-89090000D02*
X142380000Y-93910000D01*
X142340000Y-88996000D02*
X142340000Y-94004000D01*
X142300000Y-88906000D02*
X142300000Y-94094000D01*
X142260000Y-88820000D02*
X142260000Y-94180000D01*
X142220000Y-88737000D02*
X142220000Y-94263000D01*
X142180000Y-88657000D02*
X142180000Y-94343000D01*
X142140000Y-88579000D02*
X142140000Y-94421000D01*
X142100000Y-88504000D02*
X142100000Y-94496000D01*
X142060000Y-88431000D02*
X142060000Y-94569000D01*
X142020000Y-88361000D02*
X142020000Y-94639000D01*
X141980000Y-88292000D02*
X141980000Y-94708000D01*
X141940000Y-88226000D02*
X141940000Y-94774000D01*
X141900000Y-88161000D02*
X141900000Y-94839000D01*
X141860000Y-88098000D02*
X141860000Y-94902000D01*
X141820000Y-88037000D02*
X141820000Y-94963000D01*
X141780000Y-87977000D02*
X141780000Y-95023000D01*
X141740000Y-87918000D02*
X141740000Y-95082000D01*
X141700000Y-87861000D02*
X141700000Y-95139000D01*
X141660000Y-87805000D02*
X141660000Y-95195000D01*
X141620000Y-87750000D02*
X141620000Y-95250000D01*
X141580000Y-87697000D02*
X141580000Y-95303000D01*
X141540000Y-87644000D02*
X141540000Y-95356000D01*
X141500000Y-87593000D02*
X141500000Y-95407000D01*
X141460000Y-87543000D02*
X141460000Y-95457000D01*
X141420000Y-87494000D02*
X141420000Y-95506000D01*
X141380000Y-87446000D02*
X141380000Y-95554000D01*
X141340000Y-87399000D02*
X141340000Y-95601000D01*
X141300000Y-87352000D02*
X141300000Y-95648000D01*
X141260000Y-87307000D02*
X141260000Y-95693000D01*
X141220000Y-87262000D02*
X141220000Y-95738000D01*
X141180000Y-87219000D02*
X141180000Y-95781000D01*
X141140000Y-87176000D02*
X141140000Y-95824000D01*
X141100000Y-87134000D02*
X141100000Y-95866000D01*
X141060000Y-87092000D02*
X141060000Y-95908000D01*
X141020000Y-87052000D02*
X141020000Y-95948000D01*
X140980000Y-87012000D02*
X140980000Y-95988000D01*
X140940000Y-86972000D02*
X140940000Y-96028000D01*
X140900000Y-86934000D02*
X140900000Y-96066000D01*
X140860000Y-86896000D02*
X140860000Y-96104000D01*
X140820000Y-86859000D02*
X140820000Y-96141000D01*
X140780000Y-86822000D02*
X140780000Y-96178000D01*
X140740000Y-86786000D02*
X140740000Y-96214000D01*
X140700000Y-86751000D02*
X140700000Y-96249000D01*
X140660000Y-86716000D02*
X140660000Y-96284000D01*
X140620000Y-86682000D02*
X140620000Y-96318000D01*
X140580000Y-86648000D02*
X140580000Y-96352000D01*
X140540000Y-86615000D02*
X140540000Y-96385000D01*
X140500000Y-86582000D02*
X140500000Y-96418000D01*
X140460000Y-86550000D02*
X140460000Y-96450000D01*
X140420000Y-92940000D02*
X140420000Y-96481000D01*
X140420000Y-86519000D02*
X140420000Y-90060000D01*
X140380000Y-92940000D02*
X140380000Y-96512000D01*
X140380000Y-86488000D02*
X140380000Y-90060000D01*
X140340000Y-92940000D02*
X140340000Y-96542000D01*
X140340000Y-86458000D02*
X140340000Y-90060000D01*
X140300000Y-92940000D02*
X140300000Y-96572000D01*
X140300000Y-86428000D02*
X140300000Y-90060000D01*
X140260000Y-92940000D02*
X140260000Y-96602000D01*
X140260000Y-86398000D02*
X140260000Y-90060000D01*
X140220000Y-92940000D02*
X140220000Y-96631000D01*
X140220000Y-86369000D02*
X140220000Y-90060000D01*
X140180000Y-92940000D02*
X140180000Y-96659000D01*
X140180000Y-86341000D02*
X140180000Y-90060000D01*
X140140000Y-92940000D02*
X140140000Y-96688000D01*
X140140000Y-86312000D02*
X140140000Y-90060000D01*
X140100000Y-92940000D02*
X140100000Y-96715000D01*
X140100000Y-86285000D02*
X140100000Y-90060000D01*
X140060000Y-92940000D02*
X140060000Y-96742000D01*
X140060000Y-86258000D02*
X140060000Y-90060000D01*
X140020000Y-92940000D02*
X140020000Y-96769000D01*
X140020000Y-86231000D02*
X140020000Y-90060000D01*
X139980000Y-92940000D02*
X139980000Y-96795000D01*
X139980000Y-86205000D02*
X139980000Y-90060000D01*
X139940000Y-92940000D02*
X139940000Y-96821000D01*
X139940000Y-86179000D02*
X139940000Y-90060000D01*
X139900000Y-92940000D02*
X139900000Y-96847000D01*
X139900000Y-86153000D02*
X139900000Y-90060000D01*
X139860000Y-92940000D02*
X139860000Y-96872000D01*
X139860000Y-86128000D02*
X139860000Y-90060000D01*
X139820000Y-92940000D02*
X139820000Y-96896000D01*
X139820000Y-86104000D02*
X139820000Y-90060000D01*
X139780000Y-92940000D02*
X139780000Y-96921000D01*
X139780000Y-86079000D02*
X139780000Y-90060000D01*
X139740000Y-92940000D02*
X139740000Y-96944000D01*
X139740000Y-86056000D02*
X139740000Y-90060000D01*
X139700000Y-92940000D02*
X139700000Y-96968000D01*
X139700000Y-86032000D02*
X139700000Y-90060000D01*
X139660000Y-92940000D02*
X139660000Y-96991000D01*
X139660000Y-86009000D02*
X139660000Y-90060000D01*
X139620000Y-92940000D02*
X139620000Y-97014000D01*
X139620000Y-85986000D02*
X139620000Y-90060000D01*
X139580000Y-92940000D02*
X139580000Y-97036000D01*
X139580000Y-85964000D02*
X139580000Y-90060000D01*
X139540000Y-92940000D02*
X139540000Y-97058000D01*
X139540000Y-85942000D02*
X139540000Y-90060000D01*
X139500000Y-92940000D02*
X139500000Y-97079000D01*
X139500000Y-85921000D02*
X139500000Y-90060000D01*
X139460000Y-92940000D02*
X139460000Y-97101000D01*
X139460000Y-85899000D02*
X139460000Y-90060000D01*
X139420000Y-92940000D02*
X139420000Y-97121000D01*
X139420000Y-85879000D02*
X139420000Y-90060000D01*
X139380000Y-92940000D02*
X139380000Y-97142000D01*
X139380000Y-85858000D02*
X139380000Y-90060000D01*
X139340000Y-92940000D02*
X139340000Y-97162000D01*
X139340000Y-85838000D02*
X139340000Y-90060000D01*
X139300000Y-92940000D02*
X139300000Y-97182000D01*
X139300000Y-85818000D02*
X139300000Y-90060000D01*
X139260000Y-92940000D02*
X139260000Y-97201000D01*
X139260000Y-85799000D02*
X139260000Y-90060000D01*
X139220000Y-92940000D02*
X139220000Y-97220000D01*
X139220000Y-85780000D02*
X139220000Y-90060000D01*
X139180000Y-92940000D02*
X139180000Y-97239000D01*
X139180000Y-85761000D02*
X139180000Y-90060000D01*
X139140000Y-92940000D02*
X139140000Y-97257000D01*
X139140000Y-85743000D02*
X139140000Y-90060000D01*
X139100000Y-92940000D02*
X139100000Y-97275000D01*
X139100000Y-85725000D02*
X139100000Y-90060000D01*
X139060000Y-92940000D02*
X139060000Y-97293000D01*
X139060000Y-85707000D02*
X139060000Y-90060000D01*
X139020000Y-92940000D02*
X139020000Y-97310000D01*
X139020000Y-85690000D02*
X139020000Y-90060000D01*
X138980000Y-92940000D02*
X138980000Y-97327000D01*
X138980000Y-85673000D02*
X138980000Y-90060000D01*
X138940000Y-92940000D02*
X138940000Y-97344000D01*
X138940000Y-85656000D02*
X138940000Y-90060000D01*
X138900000Y-92940000D02*
X138900000Y-97361000D01*
X138900000Y-85639000D02*
X138900000Y-90060000D01*
X138860000Y-92940000D02*
X138860000Y-97377000D01*
X138860000Y-85623000D02*
X138860000Y-90060000D01*
X138820000Y-92940000D02*
X138820000Y-97392000D01*
X138820000Y-85608000D02*
X138820000Y-90060000D01*
X138780000Y-92940000D02*
X138780000Y-97408000D01*
X138780000Y-85592000D02*
X138780000Y-90060000D01*
X138740000Y-92940000D02*
X138740000Y-97423000D01*
X138740000Y-85577000D02*
X138740000Y-90060000D01*
X138700000Y-92940000D02*
X138700000Y-97438000D01*
X138700000Y-85562000D02*
X138700000Y-90060000D01*
X138660000Y-92940000D02*
X138660000Y-97453000D01*
X138660000Y-85547000D02*
X138660000Y-90060000D01*
X138620000Y-92940000D02*
X138620000Y-97467000D01*
X138620000Y-85533000D02*
X138620000Y-90060000D01*
X138580000Y-92940000D02*
X138580000Y-97481000D01*
X138580000Y-85519000D02*
X138580000Y-90060000D01*
X138540000Y-92940000D02*
X138540000Y-97495000D01*
X138540000Y-85505000D02*
X138540000Y-90060000D01*
X138500000Y-92940000D02*
X138500000Y-97508000D01*
X138500000Y-85492000D02*
X138500000Y-90060000D01*
X138460000Y-92940000D02*
X138460000Y-97521000D01*
X138460000Y-85479000D02*
X138460000Y-90060000D01*
X138420000Y-92940000D02*
X138420000Y-97534000D01*
X138420000Y-85466000D02*
X138420000Y-90060000D01*
X138380000Y-92940000D02*
X138380000Y-97546000D01*
X138380000Y-85454000D02*
X138380000Y-90060000D01*
X138340000Y-92940000D02*
X138340000Y-97558000D01*
X138340000Y-85442000D02*
X138340000Y-90060000D01*
X138300000Y-92940000D02*
X138300000Y-97570000D01*
X138300000Y-85430000D02*
X138300000Y-90060000D01*
X138260000Y-92940000D02*
X138260000Y-97582000D01*
X138260000Y-85418000D02*
X138260000Y-90060000D01*
X138220000Y-92940000D02*
X138220000Y-97593000D01*
X138220000Y-85407000D02*
X138220000Y-90060000D01*
X138180000Y-92940000D02*
X138180000Y-97604000D01*
X138180000Y-85396000D02*
X138180000Y-90060000D01*
X138140000Y-92940000D02*
X138140000Y-97615000D01*
X138140000Y-85385000D02*
X138140000Y-90060000D01*
X138100000Y-92940000D02*
X138100000Y-97626000D01*
X138100000Y-85374000D02*
X138100000Y-90060000D01*
X138060000Y-92940000D02*
X138060000Y-97636000D01*
X138060000Y-85364000D02*
X138060000Y-90060000D01*
X138020000Y-92940000D02*
X138020000Y-97646000D01*
X138020000Y-85354000D02*
X138020000Y-90060000D01*
X137980000Y-92940000D02*
X137980000Y-97656000D01*
X137980000Y-85344000D02*
X137980000Y-90060000D01*
X137940000Y-92940000D02*
X137940000Y-97665000D01*
X137940000Y-85335000D02*
X137940000Y-90060000D01*
X137900000Y-92940000D02*
X137900000Y-97674000D01*
X137900000Y-85326000D02*
X137900000Y-90060000D01*
X137860000Y-92940000D02*
X137860000Y-97683000D01*
X137860000Y-85317000D02*
X137860000Y-90060000D01*
X137820000Y-92940000D02*
X137820000Y-97692000D01*
X137820000Y-85308000D02*
X137820000Y-90060000D01*
X137780000Y-92940000D02*
X137780000Y-97700000D01*
X137780000Y-85300000D02*
X137780000Y-90060000D01*
X137740000Y-92940000D02*
X137740000Y-97708000D01*
X137740000Y-85292000D02*
X137740000Y-90060000D01*
X137700000Y-92940000D02*
X137700000Y-97716000D01*
X137700000Y-85284000D02*
X137700000Y-90060000D01*
X137660000Y-92940000D02*
X137660000Y-97723000D01*
X137660000Y-85277000D02*
X137660000Y-90060000D01*
X137620000Y-92940000D02*
X137620000Y-97731000D01*
X137620000Y-85269000D02*
X137620000Y-90060000D01*
X137580000Y-92940000D02*
X137580000Y-97738000D01*
X137580000Y-85262000D02*
X137580000Y-90060000D01*
X137540000Y-85255000D02*
X137540000Y-97745000D01*
X137500000Y-85249000D02*
X137500000Y-97751000D01*
X137460000Y-85243000D02*
X137460000Y-97757000D01*
X137420000Y-85237000D02*
X137420000Y-97763000D01*
X137380000Y-85231000D02*
X137380000Y-97769000D01*
X137340000Y-85226000D02*
X137340000Y-97774000D01*
X137300000Y-85220000D02*
X137300000Y-97780000D01*
X137260000Y-85216000D02*
X137260000Y-97784000D01*
X137220000Y-85211000D02*
X137220000Y-97789000D01*
X137180000Y-85206000D02*
X137180000Y-97794000D01*
X137140000Y-85202000D02*
X137140000Y-97798000D01*
X137100000Y-85198000D02*
X137100000Y-97802000D01*
X137060000Y-85195000D02*
X137060000Y-97805000D01*
X137020000Y-85191000D02*
X137020000Y-97809000D01*
X136980000Y-85188000D02*
X136980000Y-97812000D01*
X136940000Y-85185000D02*
X136940000Y-97815000D01*
X136900000Y-85183000D02*
X136900000Y-97817000D01*
X136860000Y-85180000D02*
X136860000Y-97820000D01*
X136820000Y-85178000D02*
X136820000Y-97822000D01*
X136780000Y-85176000D02*
X136780000Y-97824000D01*
X136740000Y-85175000D02*
X136740000Y-97825000D01*
X136700000Y-85173000D02*
X136700000Y-97827000D01*
X136660000Y-85172000D02*
X136660000Y-97828000D01*
X136620000Y-85171000D02*
X136620000Y-97829000D01*
X136580000Y-85171000D02*
X136580000Y-97829000D01*
X136540000Y-85170000D02*
X136540000Y-97830000D01*
X136500000Y-85170000D02*
X136500000Y-97830000D01*
X130307918Y-87300000D02*
X130307918Y-88550000D01*
X129682918Y-87925000D02*
X130932918Y-87925000D01*
%TD*%
M02*
